<?xml version="1.0" encoding="UTF-8" standalone="no"?>
<!-- Created with Inkscape (http://www.inkscape.org/) -->

<svg
   xmlns:dc="http://purl.org/dc/elements/1.1/"
   xmlns:cc="http://creativecommons.org/ns#"
   xmlns:rdf="http://www.w3.org/1999/02/22-rdf-syntax-ns#"
   xmlns:svg="http://www.w3.org/2000/svg"
   xmlns="http://www.w3.org/2000/svg"
   version="1.1"
   width="1350"
   height="2400"
   id="svg2"
   xml:space="preserve"><metadata
     id="metadata8"><rdf:RDF><cc:Work
         rdf:about=""><dc:format>image/svg+xml</dc:format><dc:type
           rdf:resource="http://purl.org/dc/dcmitype/StillImage" /><dc:title></dc:title></cc:Work></rdf:RDF></metadata><defs
     id="defs6"><clipPath
       id="clipPath16"><path
         d="m 0,1920 1080,0 L 1080,0 0,0 0,1920 z"
         id="path18" /></clipPath><clipPath
       id="clipPath24"><path
         d="m -123.193,45.8613 1256.993,0 0,-2015.8613 -1256.993,0 0,2015.8613 z"
         id="path26" /></clipPath><clipPath
       id="clipPath28"><path
         d="m -123.193,45.8613 1256.993,0 0,-2015.8613 -1256.993,0 0,2015.8613 z"
         id="path30" /></clipPath><mask
       id="mask32"><g
         id="g34"><g
           clip-path="url(#clipPath24)"
           id="g36"><path
             d="m -123.193,45.861 1256.997,0 0,-2015.861 -1256.997,0 0,2015.861 z"
             id="path38"
             style="fill:#000000;fill-opacity:1;fill-rule:nonzero;stroke:none" /><g
             id="g40"><g
               id="g42" /><g
               id="g44"><g
                 clip-path="url(#clipPath28)"
                 id="g46"><path
                   d="m 1080,-1970 -1080,0 0,1920 1080,0 0,-1920 z"
                   id="path48"
                   style="fill:#ffffff;fill-opacity:1;fill-rule:nonzero;stroke:none" /></g></g></g></g></g></mask><clipPath
       id="clipPath54"><path
         d="m -123.193,45.8613 1256.993,0 0,-2015.8613 -1256.993,0 0,2015.8613 z"
         id="path56" /></clipPath><clipPath
       id="clipPath58"><path
         d="m 186.103,45.8613 502.537,0 0,-249.4563 -502.537,0 0,249.4563 z"
         id="path60" /></clipPath><clipPath
       id="clipPath62"><path
         d="m 347.717,3.85718 786.083,0 0,-393.61718 -786.083,0 0,393.61718 z"
         id="path64" /></clipPath><clipPath
       id="clipPath98"><path
         d="m 0,1920 1080,0 L 1080,0 0,0 0,1920 z"
         id="path100" /></clipPath><clipPath
       id="clipPath106"><path
         d="m -189.279,2015.86 1676.299,0 0,-2015.86 -1676.299,0 0,2015.86 z"
         id="path108" /></clipPath><clipPath
       id="clipPath110"><path
         d="m -189.279,2015.86 1676.299,0 0,-2015.86 -1676.299,0 0,2015.86 z"
         id="path112" /></clipPath><mask
       id="mask114"><g
         id="g116"><g
           clip-path="url(#clipPath106)"
           id="g118"><path
             d="m -189.279,2015.861 1676.295,0 0,-2015.861 -1676.295,0 0,2015.861 z"
             id="path120"
             style="fill:#000000;fill-opacity:1;fill-rule:nonzero;stroke:none" /><g
             id="g122"><g
               id="g124" /><g
               id="g126"><g
                 clip-path="url(#clipPath110)"
                 id="g128"><path
                   d="M 1080,0 0,0 l 0,1920 1080,0 0,-1920 z"
                   id="path130"
                   style="fill:#ffffff;fill-opacity:1;fill-rule:nonzero;stroke:none" /></g></g></g></g></g></mask><clipPath
       id="clipPath136"><path
         d="m -189.279,2015.86 1676.299,0 0,-2015.86 -1676.299,0 0,2015.86 z"
         id="path138" /></clipPath><clipPath
       id="clipPath140"><path
         d="M 1080,0 0,0 l 0,1920 1080,0 0,-1920 z"
         id="path142" /></clipPath><linearGradient
       x1="0"
       y1="0"
       x2="1"
       y2="0"
       id="linearGradient144"
       gradientUnits="userSpaceOnUse"
       gradientTransform="matrix(-8.39e-5,1920.0001,1920.0001,8.39e-5,540,-2.136e-4)"
       spreadMethod="pad"><stop
         id="stop146"
         style="stop-color:#f5f19e;stop-opacity:1"
         offset="0" /><stop
         id="stop148"
         style="stop-color:#4a95e1;stop-opacity:1"
         offset="1" /></linearGradient><clipPath
       id="clipPath150"><path
         d="m 180.125,849.271 826.705,0 0,-485.027 -826.705,0 0,485.027 z"
         id="path152" /></clipPath><clipPath
       id="clipPath154"><path
         d="m 186.103,2015.86 502.537,0 0,-249.46 -502.537,0 0,249.46 z"
         id="path156" /></clipPath><clipPath
       id="clipPath158"><path
         d="m 347.717,1973.86 786.083,0 0,-393.62 -786.083,0 0,393.62 z"
         id="path160" /></clipPath><clipPath
       id="clipPath162"><path
         d="m -123.193,1791.38 373.73,0 0,-187.14 -373.73,0 0,187.14 z"
         id="path164" /></clipPath><clipPath
       id="clipPath166"><path
         d="m 143.666,1405.09 798.668,0 0,-228.56 -798.668,0 0,228.56 z"
         id="path168" /></clipPath></defs><g
     transform="matrix(1.25,0,0,-1.25,0,2400)"
     id="g10"><g
       id="g12"><g
         clip-path="url(#clipPath16)"
         id="g14"><g
           id="g20"><g
             id="g22" /><g
             mask="url(#mask32)"
             id="g50"><g
               id="g52" /><g
               id="g66"><g
                 clip-path="url(#clipPath54)"
                 id="g68"><g
                   id="g70"><g
                     id="g72" /><g
                     id="g74"><g
                       clip-path="url(#clipPath58)"
                       id="g76"
                       style="opacity:0.5"><g
                         transform="translate(461.8315,-105.2971)"
                         id="g78"><path
                           d="m 0,0 c 8.715,0 17.186,-0.863 25.339,-2.444 16.898,34.733 52.52,58.675 93.742,58.675 17.738,0 34.432,-4.445 49.052,-12.263 10.767,7.507 26.654,12.263 44.389,12.263 0.686,0 1.366,-0.017 2.047,-0.031 3.427,9.015 7.551,17.163 12.239,24.216 -2.194,1.102 -4.452,2.121 -6.776,3.041 0.056,1.107 0.084,2.222 0.084,3.344 0,35.543 -28.049,64.357 -62.65,64.357 -14.521,0 -27.876,-5.089 -38.501,-13.607 -10.83,8.591 -23.83,13.607 -37.816,13.607 -25.912,0 -48.455,-17.186 -60.043,-42.514 -5.645,1.701 -11.795,2.647 -18.24,2.647 -10.643,0 -20.487,-2.559 -28.543,-6.894 -6.773,11.987 -20.887,20.234 -37.208,20.234 -8.861,0 -17.066,-2.437 -23.804,-6.575 -11.321,5.799 -24.849,9.182 -39.389,9.182 -31.545,0 -58.336,-15.873 -68.089,-37.965 -1.956,0.239 -3.944,0.375 -5.968,0.375 -24.62,0 -44.699,-18.234 -45.775,-41.106 -17.511,-6.89 -29.819,-23.152 -29.819,-42.121 0,-25.036 21.44,-45.355 47.993,-45.629 l 0,-0.013 c 0,-24.449 21.972,-44.269 49.076,-44.269 6.653,0 12.992,1.199 18.774,3.361 6.326,-10.911 17.529,-18.169 30.303,-18.169 5.568,0 10.834,1.388 15.533,3.847 C -112.119,-42.008 -61.799,0 0,0"
                           id="path80"
                           style="fill:#ffffff;fill-opacity:1;fill-rule:nonzero;stroke:none" /></g></g></g></g><g
                   id="g82"><g
                     id="g84" /><g
                     id="g86"><g
                       clip-path="url(#clipPath62)"
                       id="g88"
                       style="opacity:0.80000299"><g
                         transform="translate(1064.1211,-113.3613)"
                         id="g90"><path
                           d="m 0,0 0,0.019 c 0,35.499 -31.9,64.276 -71.255,64.276 -9.659,0 -18.862,-1.741 -27.258,-4.881 -9.185,15.842 -25.451,26.381 -43.997,26.381 -17.984,0 -33.831,-9.903 -43.15,-24.946 -15.443,15.463 -36.184,24.946 -59.005,24.946 -12.701,0 -24.75,-2.956 -35.611,-8.221 -12.425,24.304 -30.564,39.645 -50.781,39.645 -16.997,0 -32.527,-10.841 -44.424,-28.739 -4.689,-7.053 -8.813,-15.201 -12.24,-24.216 -0.68,0.014 -1.36,0.031 -2.047,0.031 -17.735,0 -33.622,-4.756 -44.388,-12.263 -14.62,7.818 -31.315,12.263 -49.053,12.263 -41.222,0 -76.844,-23.942 -93.741,-58.675 -8.154,1.581 -16.624,2.444 -25.34,2.444 -61.799,0 -112.118,-42.008 -114.049,-94.451 -0.039,-1.039 -0.065,-2.08 -0.065,-3.126 0,-39.279 27.155,-73.114 66.277,-88.587 -0.081,-1.608 -0.122,-3.227 -0.122,-4.856 0,-51.607 40.725,-93.442 90.963,-93.442 21.084,0 40.474,7.388 55.9,19.756 15.726,-12.474 34.6,-19.756 54.907,-19.756 37.624,0 70.354,24.953 87.179,61.727 8.196,-2.47 17.125,-3.843 26.484,-3.843 15.452,0 29.744,3.715 41.441,10.01 9.833,-17.404 30.326,-29.379 54.024,-29.379 12.865,0 24.778,3.538 34.562,9.547 16.437,-8.42 36.077,-13.332 57.188,-13.332 45.801,0 84.701,23.047 98.862,55.122 2.839,-0.347 5.726,-0.544 8.666,-0.544 35.746,0 64.899,26.475 66.461,59.683 25.425,10.003 43.295,33.615 43.295,61.157 C 69.683,-29.899 38.554,-0.398 0,0"
                           id="path92"
                           style="fill:#ffffff;fill-opacity:1;fill-rule:nonzero;stroke:none" /></g></g></g></g></g></g></g></g></g></g><g
       id="g94"><g
         clip-path="url(#clipPath98)"
         id="g96"><g
           id="g102"><g
             id="g104" /><g
             mask="url(#mask114)"
             id="g132"><g
               id="g134" /><g
               id="g170"><g
                 clip-path="url(#clipPath136)"
                 id="g172"><g
                   id="g174"><g
                     clip-path="url(#clipPath140)"
                     id="g176"><g
                       id="g178"><g
                         id="g180"><path
                           d="M 1080,0 0,0 l 0,1920 1080,0 0,-1920 z"
                           id="path182"
                           style="fill:url(#linearGradient144);stroke:none" /></g></g></g></g><g
                   transform="translate(-189.2666,367.4982)"
                   id="g184"><path
                     d="m 0,0 -0.013,-367.498 1676.283,0 0.012,300.688 -12.507,0 0,26.724 -12.424,0 -23.609,117.585 -41.004,0 0,13.362 -21.124,0 0,12.026 -16.152,0 0,121.593 -26.094,0 0,84.019 -14.911,0 0,20.204 -7.455,0 0,21.379 -6.213,0 0,-21.379 -18.638,0 0,-20.204 -27.336,0 0,-169.535 -17.395,0 0,-74.827 -7.455,0 0,-12.026 -32.307,0 0,21.379 -31.753,0 0,20.043 -34.101,0 0,-29.396 -16.154,0 11.183,-58.792 -11.183,-1.336 -2.485,12.025 -66.393,-4.008 0,209.782 -25.555,0 0,16.034 -31.064,0 0,49.439 -14.083,0 0,-50.775 -7.44,0 0,-16.034 -16.843,0 0,-289.954 -8.641,0 -14.122,60.774 -62.908,0 -11.4,265.068 -30.616,0 0,24.051 -10.749,0 0,233.834 -11.919,0 0,68.146 -110.732,9.354 0,100.214 -10.507,-101.551 -9.374,0 -5.052,-703.218 -27.447,17.371 0,486.755 -18.445,0 0,50.775 -7.991,0 0,48.103 -12.465,0 0,34.741 -8.122,0 -3.728,77.499 -7.382,-78.835 -11.122,0 0,-74.827 -17.53,0 0,-38.75 -17.395,0 0,-104.223 -16.327,-49.439 -23.056,0 0,-236.827 -27.129,0 0,356.851 -89.774,0 -27,-306.902 -6.699,0 0,-18.707 -40.414,0 0,-166.465 -36.043,0 0,396.757 -28.042,0 0,84.18 -5.708,0 0,-82.844 -92.552,0 0,-157.913 -22.229,0 0,-13.361 -41.127,0 0,-151.215 -16.168,0 0,-25.388 -15.211,0 0,57.457 -21.035,0 0,25.387 -81.695,0 0,-26.724 -22.366,0 0,-28.059 -12.425,0 0,-18.707 -19.881,0 0,54.784 L 0,0 z"
                     id="path186"
                     style="fill:#072526;fill-opacity:1;fill-rule:nonzero;stroke:none" /></g><g
                   id="g188"><g
                     id="g190" /><g
                     id="g192"><g
                       clip-path="url(#clipPath150)"
                       id="g194"
                       style="opacity:0.5"><path
                         d="m 727.008,818.834 -17.674,0 0,30.437 17.674,0 0,-30.437 z"
                         id="path196"
                         style="fill:#fff6a4;fill-opacity:1;fill-rule:nonzero;stroke:none" /><path
                         d="m 779.498,732.433 -17.216,0 0,33.382 17.216,0 0,-33.382 z"
                         id="path198"
                         style="fill:#fff6a4;fill-opacity:1;fill-rule:nonzero;stroke:none" /><path
                         d="m 737.808,576.321 -23.564,0 0,61.856 23.564,0 0,-61.856 z"
                         id="path200"
                         style="fill:#fff6a4;fill-opacity:1;fill-rule:nonzero;stroke:none" /><path
                         d="m 813.068,492.374 -11.89,0 0,28.473 11.89,0 0,-28.473 z"
                         id="path202"
                         style="fill:#fff6a4;fill-opacity:1;fill-rule:nonzero;stroke:none" /><path
                         d="m 606.241,542.938 -20.618,0 0,33.382 20.618,0 0,-33.382 z"
                         id="path204"
                         style="fill:#fff6a4;fill-opacity:1;fill-rule:nonzero;stroke:none" /><path
                         d="m 549.295,445.737 -9.295,0 0,23.564 9.295,0 0,-23.564 z"
                         id="path206"
                         style="fill:#fff6a4;fill-opacity:1;fill-rule:nonzero;stroke:none" /><path
                         d="m 606.241,688.25 -20.618,0 0,24.546 20.618,0 0,-24.546 z"
                         id="path208"
                         style="fill:#fff6a4;fill-opacity:1;fill-rule:nonzero;stroke:none" /><path
                         d="m 445.22,662.723 -10.8,0 0,13.746 10.8,0 0,-13.746 z"
                         id="path210"
                         style="fill:#fff6a4;fill-opacity:1;fill-rule:nonzero;stroke:none" /><path
                         d="m 416.747,549.811 -13.642,0 0,17.673 13.642,0 0,-17.673 z"
                         id="path212"
                         style="fill:#fff6a4;fill-opacity:1;fill-rule:nonzero;stroke:none" /><path
                         d="m 416.747,457.519 -21.6,0 0,37.31 21.6,0 0,-37.31 z"
                         id="path214"
                         style="fill:#fff6a4;fill-opacity:1;fill-rule:nonzero;stroke:none" /><path
                         d="m 227.253,364.244 -23.564,0 0,19.637 23.564,0 0,-19.637 z"
                         id="path216"
                         style="fill:#fff6a4;fill-opacity:1;fill-rule:nonzero;stroke:none" /><path
                         d="m 241.795,457.519 -34.179,0 0,18.655 34.179,0 0,-18.655 z"
                         id="path218"
                         style="fill:#fff6a4;fill-opacity:1;fill-rule:nonzero;stroke:none" /><path
                         d="m 203.688,576.321 -23.564,0 0,30.928 23.564,0 0,-30.928 z"
                         id="path220"
                         style="fill:#fff6a4;fill-opacity:1;fill-rule:nonzero;stroke:none" /><path
                         d="m 1006.831,488.938 -8.837,0 0,35.346 8.837,0 0,-35.346 z"
                         id="path222"
                         style="fill:#fff6a4;fill-opacity:1;fill-rule:nonzero;stroke:none" /></g></g></g><g
                   id="g224"><g
                     id="g226" /><g
                     id="g228"><g
                       clip-path="url(#clipPath154)"
                       id="g230"
                       style="opacity:0.5"><g
                         transform="translate(461.8315,1864.7029)"
                         id="g232"><path
                           d="m 0,0 c 8.715,0 17.186,-0.863 25.339,-2.444 16.898,34.733 52.52,58.675 93.742,58.675 17.738,0 34.432,-4.445 49.052,-12.263 10.767,7.507 26.654,12.263 44.389,12.263 0.686,0 1.366,-0.017 2.047,-0.031 3.427,9.015 7.551,17.163 12.239,24.216 -2.194,1.102 -4.452,2.121 -6.776,3.041 0.056,1.107 0.084,2.222 0.084,3.344 0,35.543 -28.049,64.357 -62.65,64.357 -14.521,0 -27.876,-5.089 -38.501,-13.607 -10.83,8.591 -23.83,13.607 -37.816,13.607 -25.912,0 -48.455,-17.186 -60.043,-42.514 -5.645,1.702 -11.795,2.647 -18.24,2.647 -10.643,0 -20.487,-2.558 -28.543,-6.894 -6.773,11.987 -20.887,20.234 -37.208,20.234 -8.861,0 -17.066,-2.437 -23.804,-6.575 -11.321,5.799 -24.849,9.182 -39.389,9.182 -31.545,0 -58.336,-15.873 -68.089,-37.965 -1.956,0.239 -3.944,0.375 -5.968,0.375 -24.62,0 -44.699,-18.234 -45.775,-41.106 -17.511,-6.89 -29.819,-23.152 -29.819,-42.121 0,-25.036 21.44,-45.355 47.993,-45.629 l 0,-0.013 c 0,-24.449 21.972,-44.269 49.076,-44.269 6.653,0 12.992,1.199 18.774,3.361 6.326,-10.911 17.529,-18.169 30.303,-18.169 5.568,0 10.834,1.388 15.533,3.847 C -112.119,-42.008 -61.799,0 0,0"
                           id="path234"
                           style="fill:#ffffff;fill-opacity:1;fill-rule:nonzero;stroke:none" /></g></g></g></g><g
                   id="g236"><g
                     id="g238" /><g
                     id="g240"><g
                       clip-path="url(#clipPath158)"
                       id="g242"
                       style="opacity:0.80000299"><g
                         transform="translate(1064.1211,1856.6387)"
                         id="g244"><path
                           d="m 0,0 0,0.019 c 0,35.499 -31.9,64.276 -71.255,64.276 -9.659,0 -18.862,-1.741 -27.258,-4.881 -9.185,15.842 -25.451,26.381 -43.997,26.381 -17.984,0 -33.831,-9.903 -43.15,-24.946 -15.443,15.463 -36.184,24.946 -59.005,24.946 -12.701,0 -24.75,-2.956 -35.611,-8.221 -12.425,24.304 -30.564,39.645 -50.781,39.645 -16.997,0 -32.527,-10.841 -44.424,-28.739 -4.689,-7.053 -8.813,-15.201 -12.24,-24.216 -0.68,0.014 -1.36,0.031 -2.047,0.031 -17.735,0 -33.622,-4.756 -44.388,-12.263 -14.62,7.818 -31.315,12.263 -49.053,12.263 -41.222,0 -76.844,-23.942 -93.741,-58.675 -8.154,1.581 -16.624,2.444 -25.34,2.444 -61.799,0 -112.118,-42.008 -114.049,-94.451 -0.039,-1.038 -0.065,-2.08 -0.065,-3.126 0,-39.279 27.155,-73.114 66.277,-88.587 -0.081,-1.608 -0.122,-3.227 -0.122,-4.856 0,-51.607 40.725,-93.443 90.963,-93.443 21.084,0 40.474,7.39 55.9,19.757 15.726,-12.474 34.6,-19.757 54.907,-19.757 37.624,0 70.354,24.954 87.179,61.728 8.196,-2.47 17.125,-3.843 26.484,-3.843 15.452,0 29.744,3.715 41.441,10.01 9.833,-17.404 30.326,-29.379 54.024,-29.379 12.865,0 24.778,3.538 34.562,9.547 16.437,-8.42 36.077,-13.332 57.188,-13.332 45.801,0 84.701,23.047 98.862,55.122 2.839,-0.347 5.726,-0.544 8.666,-0.544 35.746,0 64.899,26.475 66.461,59.683 25.425,10.003 43.295,33.615 43.295,61.157 C 69.683,-29.899 38.554,-0.398 0,0"
                           id="path246"
                           style="fill:#ffffff;fill-opacity:1;fill-rule:nonzero;stroke:none" /></g></g></g></g><g
                   id="g248"><g
                     id="g250" /><g
                     id="g252"><g
                       clip-path="url(#clipPath162)"
                       id="g254"
                       style="opacity:0.60000598"><g
                         transform="translate(217.4077,1735.6509)"
                         id="g256"><path
                           d="m 0,0 0,0.009 c 0,16.877 -15.167,30.559 -33.877,30.559 -4.591,0 -8.967,-0.828 -12.959,-2.321 -4.367,7.532 -12.101,12.543 -20.918,12.543 -8.55,0 -16.083,-4.709 -20.514,-11.86 -7.342,7.351 -17.203,11.86 -28.054,11.86 -6.038,0 -11.766,-1.405 -16.93,-3.909 -5.907,11.555 -14.53,18.848 -24.142,18.848 -7.339,0 -14.102,-4.252 -19.519,-11.405 -7.52,6.969 -18.836,11.405 -31.495,11.405 -21.545,0 -39.196,-12.847 -40.859,-29.17 -10.937,-4.7 -19.844,-13.22 -25.033,-23.887 -3.876,0.752 -7.904,1.162 -12.046,1.162 -29.964,0 -54.255,-20.77 -54.255,-46.391 0,-18.674 12.911,-34.761 31.51,-42.117 -0.038,-0.765 -0.058,-1.534 -0.058,-2.309 0,-24.535 19.362,-44.425 43.246,-44.425 10.024,0 19.244,3.513 26.577,9.392 7.477,-5.93 16.45,-9.392 26.105,-9.392 10.306,0 19.836,3.944 27.596,10.626 6.028,-5.303 14.645,-8.626 24.217,-8.626 10.288,0 19.475,3.835 25.528,9.846 6.208,-4.876 14.44,-7.846 23.472,-7.846 12.309,0 23.126,5.519 29.366,13.857 4.107,-0.861 8.413,-1.345 12.868,-1.345 21.775,0 40.269,10.957 47.002,26.207 1.349,-0.166 2.722,-0.26 4.119,-0.26 16.996,0 30.856,12.588 31.598,28.376 12.089,4.756 20.584,15.982 20.584,29.076 C 33.129,-14.215 18.33,-0.189 0,0"
                           id="path258"
                           style="fill:#ffffff;fill-opacity:1;fill-rule:nonzero;stroke:none" /></g></g></g></g><g
                   id="g260"><g
                     id="g262" /><g
                     id="g264"><g
                       clip-path="url(#clipPath166)"
                       id="g266"><g
                         transform="translate(439.835,1253.3219)"
                         id="g268"><path
                           d="m 0,0 -54.465,-8.458 0.598,14.924 c -1.462,-1.546 -3.313,-2.903 -5.567,-4.062 -2.255,-1.162 -4.672,-2.101 -7.255,-2.819 -2.584,-0.716 -5.202,-1.246 -7.853,-1.577 -2.65,-0.331 -5.167,-0.496 -7.552,-0.496 -16.567,0 -28.493,3.315 -35.78,9.952 -7.289,6.631 -10.933,16.639 -10.933,30.024 0,5.196 0.065,10.283 0.199,15.259 0.133,4.976 0.264,10.008 0.397,15.094 -4.649,3.758 -11.564,10.268 -16.443,15.008 l 49.439,0.252 c -0.927,-7.961 -2.02,-16.335 -3.276,-25.129 -1.263,-8.789 -1.891,-17.113 -1.891,-24.965 0,-6.968 1.854,-12.055 5.566,-15.26 3.711,-3.206 9.74,-4.811 18.089,-4.811 4.239,0 8.479,0.994 12.72,2.986 4.239,1.991 7.618,4.369 10.14,7.133 l 2.583,42.464 -24.791,14.51 57.587,0.418 L -32.003,9.786 0,0 z"
                           id="path270"
                           style="fill:#00171c;fill-opacity:1;fill-rule:nonzero;stroke:none" /></g><g
                         transform="translate(511.9922,1291.4718)"
                         id="g272"><path
                           d="m 0,0 c -0.271,2.985 -0.998,5.863 -2.189,8.628 -1.194,2.76 -2.852,5.196 -4.969,7.299 -2.12,2.097 -4.673,3.785 -7.654,5.058 -2.982,1.27 -6.459,1.904 -10.435,1.904 -3.976,0 -7.423,-0.607 -10.336,-1.825 -2.916,-1.215 -5.369,-2.847 -7.356,-4.893 -1.988,-2.047 -3.611,-4.42 -4.869,-7.129 -1.259,-2.714 -2.221,-5.505 -2.883,-8.38 L 0,0 z m 30.409,-8.458 c 0,-0.779 -0.032,-1.55 -0.098,-2.323 -0.07,-0.774 -0.1,-1.55 -0.1,-2.323 l -80.902,-1.33 c 1.722,-6.525 5.631,-11.331 11.73,-14.427 6.092,-3.1 12.985,-4.644 20.67,-4.644 3.71,0 7.485,0.22 11.333,0.662 3.84,0.441 7.615,1.159 11.327,2.157 3.709,0.993 7.223,2.295 10.536,3.895 3.31,1.605 6.294,3.514 8.946,5.726 -1.463,-4.645 -3.91,-8.738 -7.354,-12.275 -3.447,-3.541 -7.522,-6.471 -12.226,-8.789 -4.706,-2.322 -9.808,-4.065 -15.304,-5.228 -5.503,-1.16 -10.969,-1.743 -16.401,-1.743 -7.422,0 -14.48,1.107 -21.169,3.32 -6.694,2.211 -12.523,5.252 -17.493,9.125 -4.968,3.867 -8.915,8.512 -11.826,13.93 -2.919,5.417 -4.374,11.336 -4.374,17.747 0,6.749 1.656,12.884 4.972,18.412 3.311,5.528 7.682,10.256 13.117,14.183 5.434,3.923 11.729,6.936 18.884,9.037 7.155,2.102 14.643,3.156 22.464,3.156 8.213,0 15.601,-1.274 22.16,-3.818 6.56,-2.543 12.157,-6.025 16.798,-10.444 4.636,-4.429 8.179,-9.543 10.635,-15.348 2.448,-5.803 3.675,-12.021 3.675,-18.658"
                           id="path274"
                           style="fill:#00171c;fill-opacity:1;fill-rule:nonzero;stroke:none" /></g><g
                         transform="translate(650.9355,1280.8557)"
                         id="g276"><path
                           d="m 0,0 c 0,-5.533 -1.527,-10.062 -4.574,-13.604 -3.05,-3.537 -6.892,-6.329 -11.529,-8.375 -4.641,-2.047 -9.806,-3.481 -15.504,-4.313 -5.699,-0.828 -11.2,-1.242 -16.497,-1.242 -3.052,0 -6.395,0.193 -10.039,0.579 -3.645,0.386 -7.256,0.966 -10.835,1.743 -3.576,0.773 -7.057,1.711 -10.435,2.819 -3.381,1.104 -6.395,2.433 -9.046,3.983 l -16.099,-15.757 6.163,50.757 c 2.25,-4.093 5.132,-7.961 8.645,-11.613 3.513,-3.648 7.521,-6.858 12.025,-9.621 4.505,-2.764 9.345,-4.95 14.512,-6.554 5.169,-1.601 10.534,-2.406 16.103,-2.406 1.454,0 3.146,0.088 5.067,0.253 1.92,0.165 3.775,0.525 5.564,1.076 1.79,0.553 3.282,1.33 4.473,2.323 1.194,0.997 1.789,2.322 1.789,3.983 0,1.876 -1.191,3.619 -3.578,5.22 -2.384,1.605 -5.167,2.989 -8.347,4.148 -3.179,1.164 -6.361,2.156 -9.541,2.985 -3.182,0.833 -5.566,1.468 -7.158,1.909 -4.505,1.105 -9.441,2.627 -14.808,4.563 -5.366,1.931 -10.334,4.254 -14.907,6.967 -4.572,2.709 -8.384,5.915 -11.428,9.622 -3.051,3.702 -4.574,7.984 -4.574,12.854 0,4.645 1.357,8.789 4.075,12.441 2.713,3.647 6.193,6.714 10.435,9.202 4.24,2.493 8.975,4.369 14.213,5.639 5.234,1.273 10.369,1.908 15.404,1.908 7.952,0 15.47,-1.187 22.562,-3.564 7.086,-2.382 13.549,-5.781 19.383,-10.201 L -6.163,77.629 -8.748,25.214 c -2.387,3.757 -5.367,7.546 -8.945,11.359 -3.578,3.818 -7.554,7.271 -11.926,10.371 -4.374,3.091 -9.078,5.579 -14.113,7.46 -5.038,1.881 -10.271,2.819 -15.705,2.819 -1.588,0 -3.411,-0.138 -5.465,-0.409 -2.056,-0.281 -3.974,-0.75 -5.763,-1.412 -1.789,-0.662 -3.315,-1.578 -4.573,-2.737 -1.261,-1.163 -1.889,-2.63 -1.889,-4.397 0,-2.101 0.959,-3.927 2.883,-5.472 1.919,-1.55 4.239,-2.902 6.957,-4.066 2.714,-1.159 5.499,-2.157 8.348,-2.985 2.848,-0.828 5.198,-1.467 7.056,-1.908 4.773,-1.324 10.139,-2.875 16.101,-4.64 5.964,-1.771 11.595,-3.928 16.898,-6.472 5.297,-2.543 9.768,-5.67 13.415,-9.373 C -1.827,9.65 0,5.197 0,0"
                           id="path278"
                           style="fill:#00171c;fill-opacity:1;fill-rule:nonzero;stroke:none" /></g><g
                         transform="translate(718.3164,1344.6969)"
                         id="g280"><path
                           d="m 0,0 c 0,-1.906 -0.563,-3.707 -1.689,-5.395 -1.125,-1.692 -2.651,-3.167 -4.573,-4.424 -1.92,-1.256 -4.175,-2.254 -6.756,-2.989 -2.584,-0.737 -5.337,-1.104 -8.249,-1.104 -2.915,0 -5.633,0.367 -8.149,1.104 -2.521,0.735 -4.741,1.733 -6.66,2.989 -1.925,1.257 -3.445,2.732 -4.571,4.424 -1.13,1.688 -1.689,3.489 -1.689,5.395 0,1.908 0.559,3.686 1.689,5.335 1.126,1.644 2.646,3.097 4.571,4.355 1.919,1.256 4.139,2.254 6.66,2.992 2.516,0.736 5.234,1.106 8.149,1.106 2.912,0 5.665,-0.37 8.249,-1.106 2.581,-0.738 4.836,-1.736 6.756,-2.992 C -4.34,8.432 -2.814,6.979 -1.689,5.335 -0.563,3.686 0,1.908 0,0 m 23.257,-92.203 -89.049,1.038 32.996,13.398 -2.782,43.175 -19.934,11.705 54.915,0 -6.557,-55.795 30.411,-13.521 z"
                           id="path282"
                           style="fill:#00171c;fill-opacity:1;fill-rule:nonzero;stroke:none" /></g><g
                         transform="translate(820.2881,1359.9795)"
                         id="g284"><path
                           d="m 0,0 -1.789,-15.596 c -6.493,0.442 -12.92,0.856 -19.28,1.247 -6.36,0.387 -12.789,0.855 -19.28,1.407 -1.062,-10.504 -2.187,-20.958 -3.38,-31.347 -1.19,-10.394 -2.383,-20.848 -3.579,-31.353 0,-0.553 -0.067,-1.109 -0.198,-1.656 -0.133,-0.557 -0.2,-1.108 -0.2,-1.66 0,-1.55 0.2,-3.128 0.599,-4.728 0.398,-1.605 1.057,-3.041 1.987,-4.313 0.928,-1.27 2.155,-2.323 3.677,-3.151 1.523,-0.829 3.41,-1.247 5.668,-1.247 4.37,0 8.211,0.855 11.526,2.576 3.312,1.712 6.092,3.895 8.35,6.549 2.253,2.653 4.042,5.611 5.365,8.877 1.322,3.261 2.184,6.494 2.583,9.705 1.592,-5.202 2.389,-10.346 2.389,-15.427 0,-4.87 -0.93,-9.267 -2.788,-13.19 -1.851,-3.927 -4.437,-7.294 -7.748,-10.118 -3.317,-2.819 -7.292,-4.999 -11.927,-6.554 -4.643,-1.545 -9.741,-2.318 -15.306,-2.318 -5.836,0 -10.935,0.828 -15.306,2.488 -4.372,1.657 -7.988,3.951 -10.835,6.881 -2.851,2.929 -4.968,6.387 -6.359,10.365 -1.391,3.983 -2.085,8.242 -2.085,12.778 l 0,2.487 c 0,0.773 0.062,1.601 0.198,2.484 1.06,10.726 2.087,21.318 3.077,31.766 0.997,10.45 1.889,21.037 2.686,31.767 -3.578,0.22 -7.124,0.468 -10.634,0.745 -3.514,0.275 -7.057,0.583 -10.635,0.915 l 0.794,13.098 c 2.784,0.115 5.696,0.501 8.745,1.164 3.05,0.662 5.997,1.549 8.849,2.653 2.849,1.104 5.497,2.433 7.95,3.983 2.448,1.545 4.471,3.317 6.062,5.308 1.459,1.989 2.814,4.144 4.077,6.466 1.258,2.325 2.384,4.756 3.378,7.299 0.995,2.544 1.822,5.06 2.486,7.547 0.658,2.488 1.125,4.894 1.388,7.216 L -33.194,44.783 -38.361,3.311 0,0 z"
                           id="path286"
                           style="fill:#00171c;fill-opacity:1;fill-rule:nonzero;stroke:none" /></g><g
                         transform="translate(942.334,1331.1156)"
                         id="g288"><path
                           d="m 0,0 -4.967,-98.863 c -0.398,-8.291 -1.987,-15.862 -4.77,-22.719 -2.783,-6.857 -6.794,-12.744 -12.026,-17.666 -5.235,-4.92 -11.795,-8.71 -19.681,-11.364 -7.883,-2.653 -17.062,-3.978 -27.527,-3.978 -5.833,0 -11.731,0.718 -17.693,2.153 -5.964,1.439 -11.363,3.568 -16.197,6.387 -4.839,2.82 -8.784,6.278 -11.827,10.367 -3.05,4.093 -4.572,8.849 -4.572,14.267 0,4.203 1.589,7.657 4.772,10.366 3.176,2.709 7.284,4.061 12.323,4.061 4.235,0 7.818,-1.324 10.732,-3.978 2.914,-2.654 4.37,-5.694 4.37,-9.125 0,-2.213 -0.824,-4.254 -2.48,-6.136 -1.661,-1.88 -3.616,-3.26 -5.866,-4.148 2.912,-3.205 6.69,-5.638 11.331,-7.298 4.634,-1.656 9.274,-2.488 13.913,-2.488 6.888,0 12.421,1.439 16.598,4.313 4.174,2.88 7.387,6.472 9.642,10.78 2.248,4.314 3.807,8.988 4.669,14.019 0.861,5.031 1.493,9.759 1.887,14.178 0.267,4.539 0.433,8.987 0.498,13.356 0.068,4.369 0.233,8.762 0.496,13.186 -6.229,-1.329 -12.022,-2.461 -17.393,-3.399 -5.365,-0.943 -11.228,-1.411 -17.587,-1.411 -6.496,0 -12.695,0.606 -18.586,1.825 -5.902,1.214 -11.069,3.15 -15.506,5.804 -4.441,2.654 -7.984,6.08 -10.635,10.284 -2.651,4.203 -3.977,9.29 -3.977,15.26 0,1.661 0.366,3.901 1.095,6.72 0.727,2.819 1.589,5.721 2.586,8.706 0.992,2.989 2.018,5.859 3.077,8.628 1.06,2.759 1.857,4.861 2.388,6.3 l -11.133,13.889 50.888,-7.252 c -0.797,-1.881 -1.887,-4.59 -3.282,-8.126 -1.389,-3.542 -2.817,-7.216 -4.273,-11.033 -1.458,-3.814 -2.719,-7.465 -3.776,-10.946 -1.063,-3.482 -1.589,-6.053 -1.589,-7.714 0,-2.764 0.797,-5.142 2.386,-7.134 1.588,-1.991 3.611,-3.651 6.061,-4.975 2.448,-1.325 5.167,-2.296 8.15,-2.903 2.984,-0.607 5.93,-0.91 8.845,-0.91 3.446,0 7.322,0.271 11.627,0.827 4.305,0.553 8.118,1.436 11.434,2.654 l 0.393,41.301 L -48.561,0.166 0,0 z"
                           id="path290"
                           style="fill:#00171c;fill-opacity:1;fill-rule:nonzero;stroke:none" /></g><g
                         transform="translate(255.2695,1310.3459)"
                         id="g292"><path
                           d="m 0,0 c 0,4.123 -0.759,8.249 -2.28,12.372 -1.519,4.123 -3.708,7.825 -6.557,11.102 -2.853,3.277 -6.404,5.949 -10.642,8.009 -4.25,2.066 -9.094,3.093 -14.544,3.093 -5.83,0 -11.186,-0.871 -16.063,-2.617 -4.88,-1.742 -9.095,-4.151 -12.641,-7.213 -3.549,-3.07 -6.335,-6.665 -8.361,-10.787 -2.028,-4.126 -3.042,-8.566 -3.042,-13.326 0,-4.44 0.664,-8.858 1.993,-13.245 1.334,-4.388 3.424,-8.325 6.277,-11.814 2.851,-3.491 6.426,-6.325 10.738,-8.486 4.307,-2.17 9.504,-3.251 15.586,-3.251 6.844,0 12.737,0.897 17.677,2.695 4.946,1.794 9.033,4.305 12.26,7.534 3.234,3.227 5.639,7.032 7.226,11.42 C -0.794,-10.126 0,-5.288 0,0 m 4.372,-96.54 c 0,0 -39.672,31.283 -66.513,43.217 -8.489,3.776 -19.384,8.049 -26.405,12.634 -7.027,4.59 -12.622,10.26 -16.796,17.007 -4.176,6.742 -6.262,14.537 -6.262,23.386 0,9.4 2.151,17.472 6.46,24.219 4.305,6.741 10.038,12.215 17.194,16.418 7.156,4.204 15.404,7.299 24.747,9.29 9.344,1.991 19.114,2.985 29.317,2.985 9.41,0 18.419,-1.187 27.033,-3.569 C 1.762,46.67 9.38,43.243 16.008,38.768 22.635,34.288 27.9,28.756 31.812,22.179 c 3.904,-6.581 5.864,-14.073 5.864,-22.475 0,-6.081 -1.095,-11.723 -3.281,-16.92 C 32.207,-22.413 21.213,-37.097 10.941,-47.053 -2.242,-59.831 4.372,-96.54 4.372,-96.54"
                           id="path294"
                           style="fill:#00171c;fill-opacity:1;fill-rule:nonzero;stroke:none" /></g><g
                         transform="translate(223.4834,1322.9568)"
                         id="g296" /></g></g></g><g
                   transform="translate(436.835,1256.3219)"
                   id="g300"><path
                     d="m 0,0 -54.465,-8.458 0.598,14.924 c -1.462,-1.546 -3.313,-2.903 -5.567,-4.062 -2.255,-1.162 -4.672,-2.101 -7.255,-2.819 -2.584,-0.716 -5.202,-1.246 -7.853,-1.577 -2.65,-0.331 -5.167,-0.496 -7.552,-0.496 -16.567,0 -28.493,3.315 -35.78,9.952 -7.289,6.631 -10.933,16.639 -10.933,30.024 0,5.196 0.065,10.283 0.199,15.259 0.133,4.976 0.264,10.008 0.397,15.094 -4.649,3.758 -11.564,10.268 -16.443,15.008 l 49.439,0.252 c -0.927,-7.961 -2.02,-16.335 -3.276,-25.129 -1.263,-8.789 -1.891,-17.113 -1.891,-24.965 0,-6.968 1.854,-12.055 5.566,-15.26 3.711,-3.206 9.74,-4.811 18.089,-4.811 4.239,0 8.479,0.994 12.72,2.986 4.239,1.991 7.618,4.369 10.14,7.133 l 2.583,42.464 -24.791,14.51 57.587,0.418 L -32.003,9.786 0,0 z"
                     id="path302"
                     style="fill:#2f6b68;fill-opacity:1;fill-rule:nonzero;stroke:none" /></g><g
                   transform="translate(508.9922,1294.4718)"
                   id="g304"><path
                     d="m 0,0 c -0.271,2.985 -0.998,5.863 -2.189,8.628 -1.194,2.76 -2.852,5.196 -4.969,7.299 -2.12,2.097 -4.673,3.785 -7.654,5.058 -2.982,1.27 -6.459,1.904 -10.435,1.904 -3.976,0 -7.423,-0.607 -10.336,-1.825 -2.916,-1.215 -5.369,-2.847 -7.356,-4.893 -1.988,-2.047 -3.611,-4.42 -4.869,-7.129 -1.259,-2.714 -2.221,-5.505 -2.883,-8.38 L 0,0 z m 30.409,-8.458 c 0,-0.779 -0.032,-1.55 -0.098,-2.323 -0.07,-0.774 -0.1,-1.55 -0.1,-2.323 l -80.902,-1.33 c 1.722,-6.525 5.631,-11.331 11.73,-14.427 6.092,-3.1 12.985,-4.644 20.67,-4.644 3.71,0 7.485,0.22 11.333,0.662 3.84,0.441 7.615,1.159 11.327,2.157 3.709,0.993 7.223,2.295 10.536,3.895 3.31,1.605 6.294,3.514 8.946,5.726 -1.463,-4.645 -3.91,-8.738 -7.354,-12.275 -3.447,-3.541 -7.522,-6.471 -12.226,-8.789 -4.706,-2.322 -9.808,-4.065 -15.304,-5.228 -5.503,-1.16 -10.969,-1.743 -16.401,-1.743 -7.422,0 -14.48,1.107 -21.169,3.32 -6.694,2.211 -12.523,5.252 -17.493,9.125 -4.968,3.867 -8.915,8.512 -11.826,13.93 -2.919,5.417 -4.374,11.336 -4.374,17.747 0,6.749 1.656,12.884 4.972,18.412 3.311,5.528 7.682,10.256 13.117,14.183 5.434,3.923 11.729,6.936 18.884,9.037 7.155,2.102 14.643,3.156 22.464,3.156 8.213,0 15.601,-1.274 22.16,-3.818 6.56,-2.543 12.157,-6.025 16.798,-10.444 4.636,-4.429 8.179,-9.543 10.635,-15.348 2.448,-5.803 3.675,-12.021 3.675,-18.658"
                     id="path306"
                     style="fill:#2f6b68;fill-opacity:1;fill-rule:nonzero;stroke:none" /></g><g
                   transform="translate(647.9355,1283.8557)"
                   id="g308"><path
                     d="m 0,0 c 0,-5.533 -1.527,-10.062 -4.574,-13.604 -3.05,-3.537 -6.892,-6.329 -11.529,-8.375 -4.641,-2.047 -9.806,-3.481 -15.504,-4.313 -5.699,-0.828 -11.2,-1.242 -16.497,-1.242 -3.052,0 -6.395,0.193 -10.039,0.579 -3.645,0.386 -7.256,0.966 -10.835,1.743 -3.576,0.773 -7.057,1.711 -10.435,2.819 -3.381,1.104 -6.395,2.433 -9.046,3.983 l -16.099,-15.757 6.163,50.757 c 2.25,-4.093 5.132,-7.961 8.645,-11.613 3.513,-3.648 7.521,-6.858 12.025,-9.621 4.505,-2.764 9.345,-4.95 14.512,-6.554 5.169,-1.601 10.534,-2.406 16.103,-2.406 1.454,0 3.146,0.088 5.067,0.253 1.92,0.165 3.775,0.525 5.564,1.076 1.79,0.553 3.282,1.33 4.473,2.323 1.194,0.997 1.789,2.322 1.789,3.983 0,1.876 -1.191,3.619 -3.578,5.22 -2.384,1.605 -5.167,2.989 -8.347,4.148 -3.179,1.164 -6.361,2.156 -9.541,2.985 -3.182,0.833 -5.566,1.468 -7.158,1.909 -4.505,1.105 -9.441,2.627 -14.808,4.563 -5.366,1.931 -10.334,4.254 -14.907,6.967 -4.572,2.709 -8.384,5.915 -11.428,9.622 -3.051,3.702 -4.574,7.984 -4.574,12.854 0,4.645 1.357,8.789 4.075,12.441 2.713,3.647 6.193,6.714 10.435,9.202 4.24,2.493 8.975,4.369 14.213,5.639 5.234,1.273 10.369,1.908 15.404,1.908 7.952,0 15.47,-1.187 22.562,-3.564 7.086,-2.382 13.549,-5.781 19.383,-10.201 L -6.163,77.629 -8.748,25.214 c -2.387,3.757 -5.367,7.546 -8.945,11.359 -3.578,3.818 -7.554,7.271 -11.926,10.371 -4.374,3.091 -9.078,5.579 -14.113,7.46 -5.038,1.881 -10.271,2.819 -15.705,2.819 -1.588,0 -3.411,-0.138 -5.465,-0.409 -2.056,-0.281 -3.974,-0.75 -5.763,-1.412 -1.789,-0.662 -3.315,-1.578 -4.573,-2.737 -1.261,-1.163 -1.889,-2.63 -1.889,-4.397 0,-2.101 0.959,-3.927 2.883,-5.472 1.919,-1.55 4.239,-2.902 6.957,-4.066 2.714,-1.159 5.499,-2.157 8.348,-2.985 2.848,-0.828 5.198,-1.467 7.056,-1.908 4.773,-1.324 10.139,-2.875 16.101,-4.64 5.964,-1.771 11.595,-3.928 16.898,-6.472 5.297,-2.543 9.768,-5.67 13.415,-9.373 C -1.827,9.65 0,5.197 0,0"
                     id="path310"
                     style="fill:#2f6b68;fill-opacity:1;fill-rule:nonzero;stroke:none" /></g><g
                   transform="translate(715.3164,1347.6969)"
                   id="g312"><path
                     d="m 0,0 c 0,-1.906 -0.563,-3.707 -1.689,-5.395 -1.125,-1.692 -2.651,-3.167 -4.573,-4.424 -1.92,-1.256 -4.175,-2.254 -6.756,-2.989 -2.584,-0.737 -5.337,-1.104 -8.249,-1.104 -2.915,0 -5.633,0.367 -8.149,1.104 -2.521,0.735 -4.741,1.733 -6.66,2.989 -1.925,1.257 -3.445,2.732 -4.571,4.424 -1.13,1.688 -1.689,3.489 -1.689,5.395 0,1.908 0.559,3.686 1.689,5.335 1.126,1.644 2.646,3.097 4.571,4.355 1.919,1.256 4.139,2.254 6.66,2.992 2.516,0.736 5.234,1.106 8.149,1.106 2.912,0 5.665,-0.37 8.249,-1.106 2.581,-0.738 4.836,-1.736 6.756,-2.992 C -4.34,8.432 -2.814,6.979 -1.689,5.335 -0.563,3.686 0,1.908 0,0 m 23.257,-92.203 -89.049,1.038 32.996,13.398 -2.782,43.175 -19.934,11.705 54.915,0 -6.557,-55.795 30.411,-13.521 z"
                     id="path314"
                     style="fill:#2f6b68;fill-opacity:1;fill-rule:nonzero;stroke:none" /></g><g
                   transform="translate(817.2881,1362.9795)"
                   id="g316"><path
                     d="m 0,0 -1.789,-15.596 c -6.493,0.442 -12.92,0.856 -19.28,1.247 -6.36,0.387 -12.789,0.855 -19.28,1.407 -1.062,-10.504 -2.187,-20.958 -3.38,-31.347 -1.19,-10.394 -2.383,-20.848 -3.579,-31.353 0,-0.553 -0.067,-1.109 -0.198,-1.656 -0.133,-0.557 -0.2,-1.108 -0.2,-1.66 0,-1.55 0.2,-3.128 0.599,-4.728 0.398,-1.605 1.057,-3.041 1.987,-4.313 0.928,-1.27 2.155,-2.323 3.677,-3.151 1.523,-0.829 3.41,-1.247 5.668,-1.247 4.37,0 8.211,0.855 11.526,2.576 3.312,1.712 6.092,3.895 8.35,6.549 2.253,2.653 4.042,5.611 5.365,8.877 1.322,3.261 2.184,6.494 2.583,9.705 1.592,-5.202 2.389,-10.346 2.389,-15.427 0,-4.87 -0.93,-9.267 -2.788,-13.19 -1.851,-3.927 -4.437,-7.294 -7.748,-10.118 -3.317,-2.819 -7.292,-4.999 -11.927,-6.554 -4.643,-1.545 -9.741,-2.318 -15.306,-2.318 -5.836,0 -10.935,0.828 -15.306,2.488 -4.372,1.657 -7.988,3.951 -10.835,6.881 -2.851,2.929 -4.968,6.387 -6.359,10.365 -1.391,3.983 -2.085,8.242 -2.085,12.778 l 0,2.487 c 0,0.773 0.062,1.601 0.198,2.484 1.06,10.726 2.087,21.318 3.077,31.766 0.997,10.45 1.889,21.037 2.686,31.767 -3.578,0.22 -7.124,0.468 -10.634,0.745 -3.514,0.275 -7.057,0.583 -10.635,0.915 l 0.794,13.098 c 2.784,0.115 5.696,0.501 8.745,1.164 3.05,0.662 5.997,1.549 8.849,2.653 2.849,1.104 5.497,2.433 7.95,3.983 2.448,1.545 4.471,3.317 6.062,5.308 1.459,1.989 2.814,4.144 4.077,6.466 1.258,2.325 2.384,4.756 3.378,7.299 0.995,2.544 1.822,5.06 2.486,7.547 0.658,2.488 1.125,4.894 1.388,7.216 L -33.194,44.783 -38.361,3.311 0,0 z"
                     id="path318"
                     style="fill:#2f6b68;fill-opacity:1;fill-rule:nonzero;stroke:none" /></g><g
                   transform="translate(939.334,1334.1156)"
                   id="g320"><path
                     d="m 0,0 -4.967,-98.863 c -0.398,-8.291 -1.987,-15.862 -4.77,-22.719 -2.783,-6.857 -6.794,-12.744 -12.026,-17.666 -5.235,-4.92 -11.795,-8.71 -19.681,-11.364 -7.883,-2.653 -17.062,-3.978 -27.527,-3.978 -5.833,0 -11.731,0.718 -17.693,2.153 -5.964,1.439 -11.363,3.568 -16.197,6.387 -4.839,2.82 -8.784,6.278 -11.827,10.367 -3.05,4.093 -4.572,8.849 -4.572,14.267 0,4.203 1.589,7.657 4.772,10.366 3.176,2.709 7.284,4.061 12.323,4.061 4.235,0 7.818,-1.324 10.732,-3.978 2.914,-2.654 4.37,-5.694 4.37,-9.125 0,-2.213 -0.824,-4.254 -2.48,-6.136 -1.661,-1.88 -3.616,-3.26 -5.866,-4.148 2.912,-3.205 6.69,-5.638 11.331,-7.298 4.634,-1.656 9.274,-2.488 13.913,-2.488 6.888,0 12.421,1.439 16.598,4.313 4.174,2.88 7.387,6.472 9.642,10.78 2.248,4.314 3.807,8.988 4.669,14.019 0.861,5.031 1.493,9.759 1.887,14.178 0.267,4.539 0.433,8.987 0.498,13.356 0.068,4.369 0.233,8.762 0.496,13.186 -6.229,-1.329 -12.022,-2.461 -17.393,-3.399 -5.365,-0.943 -11.228,-1.411 -17.587,-1.411 -6.496,0 -12.695,0.606 -18.586,1.825 -5.902,1.214 -11.069,3.15 -15.506,5.804 -4.441,2.654 -7.984,6.08 -10.635,10.284 -2.651,4.203 -3.977,9.29 -3.977,15.26 0,1.661 0.366,3.901 1.095,6.72 0.727,2.819 1.589,5.721 2.586,8.706 0.992,2.989 2.018,5.859 3.077,8.628 1.06,2.759 1.857,4.861 2.388,6.3 l -11.133,13.889 50.888,-7.252 c -0.797,-1.881 -1.887,-4.59 -3.282,-8.126 -1.389,-3.542 -2.817,-7.216 -4.273,-11.033 -1.458,-3.814 -2.719,-7.465 -3.776,-10.946 -1.063,-3.482 -1.589,-6.053 -1.589,-7.714 0,-2.764 0.797,-5.142 2.386,-7.134 1.588,-1.991 3.611,-3.651 6.061,-4.975 2.448,-1.325 5.167,-2.296 8.15,-2.903 2.984,-0.607 5.93,-0.91 8.845,-0.91 3.446,0 7.322,0.271 11.627,0.827 4.305,0.553 8.118,1.436 11.434,2.654 l 0.393,41.301 L -48.561,0.166 0,0 z"
                     id="path322"
                     style="fill:#2f6b68;fill-opacity:1;fill-rule:nonzero;stroke:none" /></g><g
                   transform="translate(252.2695,1313.3459)"
                   id="g324"><path
                     d="m 0,0 c 0,4.123 -0.759,8.249 -2.28,12.372 -1.519,4.123 -3.708,7.825 -6.557,11.102 -2.853,3.277 -6.404,5.949 -10.642,8.009 -4.25,2.066 -9.094,3.093 -14.544,3.093 -5.83,0 -11.186,-0.871 -16.063,-2.617 -4.88,-1.742 -9.095,-4.151 -12.641,-7.213 -3.549,-3.07 -6.335,-6.665 -8.361,-10.787 -2.028,-4.126 -3.042,-8.566 -3.042,-13.326 0,-4.44 0.664,-8.858 1.993,-13.245 1.334,-4.388 3.424,-8.325 6.277,-11.814 2.851,-3.491 6.426,-6.325 10.738,-8.486 4.307,-2.17 9.504,-3.251 15.586,-3.251 6.844,0 12.737,0.897 17.677,2.695 4.946,1.794 9.033,4.305 12.26,7.534 3.234,3.227 5.639,7.032 7.226,11.42 C -0.794,-10.126 0,-5.288 0,0 m 4.372,-96.54 c 0,0 -39.672,31.283 -66.513,43.217 -8.489,3.776 -19.384,8.049 -26.405,12.634 -7.027,4.59 -12.622,10.26 -16.796,17.007 -4.176,6.742 -6.262,14.537 -6.262,23.386 0,9.4 2.151,17.472 6.46,24.219 4.305,6.741 10.038,12.215 17.194,16.418 7.156,4.204 15.404,7.299 24.747,9.29 9.344,1.991 19.114,2.985 29.317,2.985 9.41,0 18.419,-1.187 27.033,-3.569 C 1.762,46.67 9.38,43.243 16.008,38.768 22.635,34.288 27.9,28.756 31.812,22.179 c 3.904,-6.581 5.864,-14.073 5.864,-22.475 0,-6.081 -1.095,-11.723 -3.281,-16.92 C 32.207,-22.413 21.213,-37.097 10.941,-47.053 -2.242,-59.831 4.372,-96.54 4.372,-96.54"
                     id="path326"
                     style="fill:#113f42;fill-opacity:1;fill-rule:nonzero;stroke:none" /></g></g></g></g></g></g></g></g></svg>